# 3ds Max Wavefront OBJ Exporter v0.97b - (c)2007 guruware
# File Created: 28.01.2023 17:04:02

mtllib bag.mtl

#
# object Box006
#

v  0.029386 0.670544 0.000000
v  0.395288 0.670544 0.000000
v  0.395288 -0.365677 0.000000
v  0.029386 -0.365677 0.000000
v  0.043171 -0.257562 0.664095
v  0.381503 -0.257562 0.664095
v  0.381503 0.562429 0.664095
v  0.043171 0.562429 0.664095
v  0.388537 -0.292731 1.571802
v  0.036137 -0.292731 1.720440
v  1.127091 -0.365677 0.000000
v  1.127091 0.670544 0.000000
v  1.093335 0.597598 1.652121
v  1.093335 -0.292731 1.652121
v  0.036137 0.597598 1.720440
v  0.388537 0.597598 1.571802
v  -0.702417 0.670544 0.000000
v  -0.702417 -0.365677 0.000000
v  -0.668661 -0.292731 1.720440
v  -0.668661 0.597598 1.720440
v  0.381503 -0.257562 1.536633
v  0.043171 -0.257562 1.685271
v  1.058167 0.562429 1.616952
v  1.058167 -0.257562 1.616952
v  0.043171 0.562429 1.685271
v  0.381503 0.562429 1.536633
v  -0.633493 -0.257562 1.685271
v  -0.633493 0.562429 1.685271
v  1.058167 0.562429 0.664095
v  1.058167 -0.257562 0.664095
v  -0.633493 -0.257562 0.664095
v  -0.633493 0.562429 0.664095
v  0.761189 0.670544 0.000000
v  0.761189 -0.365677 0.000000
v  -0.336516 -0.365677 0.000000
v  -0.336516 0.670544 0.000000
v  0.719835 -0.257562 0.664095
v  0.719835 0.562429 0.664095
v  -0.295161 0.562429 0.664095
v  -0.295161 -0.257562 0.664095
v  0.740936 -0.292731 1.720440
v  -0.316262 -0.292731 1.624319
v  -0.316262 0.597598 1.624319
v  0.740936 0.597598 1.720440
v  0.719835 -0.257562 1.685271
v  -0.295161 -0.257562 1.589150
v  -0.295161 0.562429 1.589150
v  0.719835 0.562429 1.685271
# 48 vertices

vn 0.000000 0.721929 -0.691968
vn 0.000000 0.723312 -0.690522
vn 0.000000 -0.723312 -0.690522
vn 0.000000 -0.721929 -0.691968
vn 0.000000 0.707107 0.707107
vn 0.000000 -0.707107 0.707107
vn -0.038405 -0.471483 0.881039
vn 0.033711 -0.312767 0.949232
vn 0.581358 -0.589934 -0.560357
vn 0.581358 0.589934 -0.560357
vn 0.526029 0.456971 0.717266
vn 0.526029 -0.456971 0.717266
vn 0.033711 0.312767 0.949232
vn -0.038405 0.471483 0.881039
vn -0.581203 0.589444 -0.561033
vn -0.581203 -0.589444 -0.561033
vn -0.418708 -0.485388 0.767517
vn -0.418708 0.485388 0.767517
vn 0.008249 0.957121 0.289571
vn 0.055181 0.889093 0.454389
vn -0.546799 -0.636677 0.543740
vn -0.546799 0.636677 0.543740
vn 0.055181 -0.889093 0.454389
vn 0.008249 -0.957121 0.289571
vn 0.645541 0.466197 0.604927
vn 0.645541 -0.466197 0.604927
vn -0.577350 -0.577350 0.577350
vn -0.577350 0.577350 0.577350
vn 0.577350 0.577350 0.577350
vn 0.577350 -0.577350 0.577350
vn 0.000000 0.721928 -0.691968
vn 0.000000 -0.721928 -0.691968
vn 0.000000 -0.722794 -0.691063
vn 0.000000 0.722794 -0.691063
vn -0.031197 -0.319147 0.947192
vn 0.067942 -0.438917 0.895955
vn 0.067942 0.438917 0.895955
vn -0.031197 0.319147 0.947192
vn -0.105253 0.874989 0.472562
vn -0.018697 0.948866 0.315125
vn -0.018697 -0.948866 0.315125
vn -0.105253 -0.874989 0.472563
# 42 vertex normals

vt 0.600000 1.000000 0.000000
vt 0.400000 1.000000 0.000000
vt 0.400000 0.000000 0.000000
vt 0.600000 0.000000 0.000000
vt 0.000000 0.000000 0.000000
vt 1.000000 0.000000 0.000000
vt 1.000000 1.000000 0.000000
vt 0.000000 1.000000 0.000000
vt 0.200000 1.000000 0.000000
vt 0.200000 0.000000 0.000000
vt 0.800000 0.000000 0.000000
vt 0.800000 1.000000 0.000000
# 12 texture coords

o Box006
g Box006
usemtl wire_214229166
s 2
f 1/1/1 2/2/2 3/3/3 4/4/4 
s 4
f 5/3/5 6/4/5 7/1/6 8/2/6 
s 8
f 4/3/4 3/4/3 9/1/7 10/2/8 
s 16
f 11/5/9 12/6/10 13/7/11 14/8/12 
s 32
f 2/3/2 1/4/1 15/1/13 16/2/14 
s 64
f 17/5/15 18/6/16 19/7/17 20/8/18 
s off
f 10/3/8 9/4/7 21/4/19 22/3/20 
f 14/6/12 13/7/11 23/7/21 24/6/22 
f 16/1/14 15/2/13 25/2/23 26/1/24 
f 20/8/18 19/5/17 27/5/25 28/8/26 
f 22/3/20 21/4/19 6/4/5 5/3/5 
f 24/6/22 23/7/21 29/7/27 30/6/28 
f 26/1/24 25/2/23 8/2/6 7/1/6 
f 28/8/26 27/5/25 31/5/29 32/8/30 
s 2
f 33/9/31 12/8/10 11/5/9 34/10/32 
f 2/2/2 33/9/31 34/10/32 3/3/3 
f 35/11/33 18/6/16 17/7/15 36/12/34 
f 4/4/4 35/11/33 36/12/34 1/1/1 
s 4
f 37/11/5 30/6/28 29/7/27 38/12/6 
f 6/4/5 37/11/5 38/12/6 7/1/6 
f 39/9/6 32/8/30 31/5/29 40/10/5 
f 8/2/6 39/9/6 40/10/5 5/3/5 
s 8
f 34/11/32 11/6/9 14/7/12 41/12/35 
f 3/4/3 34/11/32 41/12/35 9/1/7 
f 42/9/36 19/8/17 18/5/16 35/10/33 
f 10/2/8 42/9/36 35/10/33 4/3/4 
s 32
f 36/11/34 17/6/15 20/7/18 43/12/37 
f 1/4/1 36/11/34 43/12/37 15/1/13 
f 44/9/38 13/8/11 12/5/10 33/10/31 
f 16/2/14 44/9/38 33/10/31 2/3/2 
s off
f 41/11/35 14/6/12 24/6/22 45/11/39 
f 9/4/7 41/11/35 45/11/39 21/4/19 
f 46/10/40 27/5/25 19/5/17 42/10/36 
f 22/3/20 46/10/40 42/10/36 10/3/8 
f 43/9/37 20/8/18 28/8/26 47/9/41 
f 15/2/13 43/9/37 47/9/41 25/2/23 
f 48/12/42 23/7/21 13/7/11 44/12/38 
f 26/1/24 48/12/42 44/12/38 16/1/14 
f 45/11/39 24/6/22 30/6/28 37/11/5 
f 21/4/19 45/11/39 37/11/5 6/4/5 
f 40/10/5 31/5/29 27/5/25 46/10/40 
f 5/3/5 40/10/5 46/10/40 22/3/20 
f 47/9/41 28/8/26 32/8/30 39/9/6 
f 25/2/23 47/9/41 39/9/6 8/2/6 
f 38/12/6 29/7/27 23/7/21 48/12/42 
f 7/1/6 38/12/6 48/12/42 26/1/24 
# 46 polygons

