# 3ds Max Wavefront OBJ Exporter v0.97b - (c)2007 guruware
# File Created: 28.01.2023 16:30:41

mtllib banana.mtl

#
# object mesh_1769539539
#

v  0.523571 -0.052383 2.113651
v  0.638970 -0.053028 2.210585
v  0.593048 -0.231347 2.264067
v  0.477650 -0.230702 2.167134
v  0.589067 -0.000537 2.342750
v  0.543146 -0.178856 2.396234
v  0.442828 0.032549 2.327500
v  0.396907 -0.145770 2.380982
v  0.402349 0.000506 2.185908
v  0.356428 -0.177812 2.239391
v  0.368070 -0.366741 2.486497
v  0.626097 0.298559 2.247384
v  0.463639 -0.382236 2.506592
v  0.497485 -0.450377 2.443437
v  0.422834 -0.476996 2.384310
v  0.356608 -0.468683 2.560240
v  0.342852 -0.425305 2.410923
v  0.578532 0.265668 2.327590
v  0.482940 0.255537 2.304418
v  0.471426 0.282168 2.209890
v  0.559901 0.308757 2.174640
v  0.528746 0.447731 2.269127
v  0.559509 0.439636 2.304125
v  0.404590 -0.481085 2.569832
v  0.416527 -0.520728 2.540952
v  0.375923 -0.532826 2.513512
v  0.301589 -0.516533 2.605776
v  0.338891 -0.500661 2.525431
v  0.381819 -0.524601 2.616123
v  0.408164 -0.581758 2.564665
v  0.344215 -0.609017 2.522516
v  0.278348 -0.568706 2.547923
v  0.537160 0.415151 2.337855
v  0.492585 0.408113 2.323704
v  0.487385 0.428249 2.281228
# 35 vertices

vn 0.596947 -0.713106 0.367606
vn 0.912692 0.391340 0.117666
vn -0.032872 0.954967 -0.294885
vn -0.933009 0.198862 -0.299914
vn -0.543759 -0.832064 0.109527
vn -0.948479 0.219433 -0.228555
vn 0.640097 -0.761342 -0.103122
vn 0.014965 0.881280 -0.472357
vn 0.919806 0.382329 0.088212
vn 0.495343 -0.593920 0.633951
vn -0.593956 -0.664391 0.453653
vn -0.963872 0.152289 -0.218538
vn -0.966492 0.183094 -0.179915
vn -0.534017 -0.708324 0.461630
vn -0.115829 0.890363 -0.440270
vn 0.854711 0.516291 0.053976
vn 0.601853 -0.468816 0.646517
vn 0.941230 0.333056 -0.056218
vn -0.076944 0.990224 -0.116341
vn -0.950907 0.223378 -0.214190
vn -0.429454 -0.883472 -0.187206
vn 0.677598 -0.521791 -0.518261
vn 0.741741 -0.669583 -0.038462
vn 0.863706 0.503555 0.021081
vn -0.239916 0.969716 -0.045730
vn -0.966339 0.171688 -0.191604
vn -0.079404 0.817496 -0.570435
vn 0.813772 0.564883 0.136683
vn 0.467151 -0.202315 0.860720
vn -0.582156 -0.491319 0.647843
vn -0.736097 -0.214963 -0.641835
vn -0.930150 0.178853 -0.320674
vn -0.667657 -0.425225 0.611079
vn -0.010173 0.809649 -0.586827
vn 0.433809 -0.261812 0.862127
vn 0.046022 0.696126 -0.716443
vn 0.930849 0.365123 -0.014300
vn 0.606693 -0.714905 0.347613
vn -0.297673 -0.954604 -0.011073
vn -0.160132 0.695769 0.700188
vn -0.763430 -0.235648 -0.601369
vn -0.355795 -0.934533 -0.007677
vn -0.021233 0.711938 -0.701922
vn 0.893995 0.447992 -0.008739
vn 0.809800 0.556471 -0.185912
vn -0.223343 0.968701 0.108330
vn -0.989791 0.135667 -0.043687
vn -0.440550 -0.785990 -0.433746
vn -0.274483 0.439132 -0.855466
vn 0.783105 0.609287 -0.124565
vn -0.279003 0.949669 0.142432
# 51 vertex normals

o mesh_1769539539
g mesh_1769539539
usemtl material_12___26544
s off
f 1//1 2//1 3//1 4//1 
f 2//2 5//2 6//2 3//2 
f 5//3 7//3 8//3 6//3 
f 7//4 9//4 10//4 8//4 
f 9//5 1//5 4//5 10//5 
f 11//6 8//6 10//6 
f 12//7 2//7 1//7 
f 13//8 6//8 8//8 
f 14//9 3//9 6//9 
f 15//10 4//10 3//10 
f 15//11 10//11 4//11 
f 16//12 11//12 17//12 
f 10//13 17//13 11//13 
f 15//14 17//14 10//14 
f 8//15 11//15 13//15 
f 6//16 13//16 14//16 
f 3//17 14//17 15//17 
f 18//18 5//18 2//18 
f 19//19 7//19 5//19 
f 20//20 9//20 7//20 
f 20//21 21//21 1//21 9//21 
f 22//22 23//22 12//22 21//22 
f 1//23 21//23 12//23 
f 2//24 12//24 18//24 
f 5//25 18//25 19//25 
f 7//26 19//26 20//26 
f 24//27 13//27 11//27 
f 24//28 25//28 14//28 13//28 
f 26//29 15//29 14//29 
f 26//30 17//30 15//30 
usemtl material_23___26544
f 27//31 16//31 28//31 
usemtl material_12___26544
f 17//32 28//32 16//32 
f 26//33 28//33 17//33 
f 11//34 16//34 24//34 
f 14//35 25//35 26//35 
usemtl material_23___26544
f 29//36 24//36 16//36 
f 30//37 25//37 24//37 
f 30//38 31//38 26//38 25//38 
f 31//39 28//39 26//39 
f 31//40 30//40 29//40 27//40 32//40 
f 28//41 32//41 27//41 
f 31//42 32//42 28//42 
f 16//43 27//43 29//43 
f 24//44 29//44 30//44 
usemtl material_12___26544
f 33//45 18//45 12//45 
f 34//46 19//46 18//46 
f 34//47 35//47 20//47 19//47 
f 35//48 22//48 21//48 20//48 
f 35//49 34//49 33//49 23//49 22//49 
f 12//50 23//50 33//50 
f 18//51 33//51 34//51 
# 13 polygons - 38 triangles

