# 3ds Max Wavefront OBJ Exporter v0.97b - (c)2007 guruware
# File Created: 28.01.2023 16:32:09

mtllib grusha.mtl

#
# object mesh_805264794
#

v  0.241727 0.461622 1.523355
v  0.257455 0.482975 1.501926
v  0.241261 0.521369 1.531856
v  0.225401 0.501013 1.554140
v  0.223553 0.479543 1.500749
v  0.207361 0.517920 1.530663
v  0.253342 0.444860 1.507015
v  0.268995 0.466773 1.486105
v  0.235098 0.463302 1.484891
v  0.263512 0.429841 1.490331
v  0.279085 0.452338 1.469986
v  0.245188 0.448869 1.468774
v  0.274109 0.414718 1.472049
v  0.289617 0.437705 1.452209
v  0.255694 0.434426 1.451193
v  0.281772 0.402066 1.453912
v  0.297206 0.425614 1.434682
v  0.263288 0.422295 1.433623
v  0.285235 0.386918 1.429436
v  0.300586 0.411104 1.410944
v  0.266653 0.407900 1.410019
v  0.289608 0.371603 1.404029
v  0.304863 0.396499 1.386421
v  0.270959 0.393084 1.385233
v  0.299900 0.361717 1.379721
v  0.315051 0.387270 1.362986
v  0.281191 0.383576 1.361426
v  0.306541 0.355196 1.358443
v  0.321625 0.381139 1.342256
v  0.287753 0.377514 1.340796
# 30 vertices

vn 0.839132 0.539380 0.070186
vn -0.033666 -0.795086 -0.605561
vn -0.814259 0.240627 0.528282
vn -0.100456 0.631106 -0.769164
vn 0.098022 -0.665433 0.739994
vn 0.807434 0.589899 0.008346
vn -0.043682 -0.730139 -0.681901
vn -0.763694 0.103783 0.637182
vn 0.098539 -0.683839 0.722948
vn 0.825172 0.561875 0.058204
vn -0.050100 -0.683518 -0.728212
vn -0.766378 0.096838 0.635049
vn 0.097133 -0.703782 0.703744
vn 0.830051 0.551993 0.079490
vn -0.053708 -0.653110 -0.755356
vn -0.764472 0.077739 0.639953
vn 0.087800 -0.724027 0.684161
vn 0.859742 0.482943 0.166163
vn -0.060803 -0.584643 -0.809009
vn -0.778933 0.097194 0.619529
vn 0.088166 -0.742436 0.664090
vn 0.890908 0.322915 0.319389
vn -0.066064 -0.526804 -0.847416
vn -0.819182 0.211270 0.533203
vn 0.081097 -0.766304 0.637339
vn 0.889922 0.337823 0.306455
vn -0.066905 -0.519805 -0.851661
vn -0.815973 0.187235 0.546929
vn 0.089081 -0.786643 0.610948
vn 0.864836 0.455502 0.211133
vn -0.079821 -0.397132 -0.914284
vn -0.738059 -0.043409 0.673339
vn 0.100972 -0.803798 0.586271
vn 0.885767 0.365000 0.286690
vn -0.088671 -0.307449 -0.947424
vn -0.747193 -0.036162 0.663623
vn 0.095913 -0.818492 0.566456
# 37 vertex normals

o mesh_805264794
g mesh_805264794
usemtl material_20___26544
s off
f 1//1 2//1 3//1 4//1 
f 2//2 5//2 6//2 3//2 
f 5//3 1//3 4//3 6//3 
f 4//4 3//4 6//4 
f 5//5 2//5 1//5 
f 7//6 8//6 2//6 1//6 
f 8//7 9//7 5//7 2//7 
f 9//8 7//8 1//8 5//8 
f 9//9 8//9 7//9 
f 10//10 11//10 8//10 7//10 
f 11//11 12//11 9//11 8//11 
f 12//12 10//12 7//12 9//12 
f 12//13 11//13 10//13 
f 13//14 14//14 11//14 10//14 
f 14//15 15//15 12//15 11//15 
f 15//16 13//16 10//16 12//16 
f 15//17 14//17 13//17 
f 16//18 17//18 14//18 13//18 
f 17//19 18//19 15//19 14//19 
f 18//20 16//20 13//20 15//20 
f 18//21 17//21 16//21 
f 19//22 20//22 17//22 16//22 
f 20//23 21//23 18//23 17//23 
f 21//24 19//24 16//24 18//24 
f 21//25 20//25 19//25 
f 22//26 23//26 20//26 19//26 
f 23//27 24//27 21//27 20//27 
f 24//28 22//28 19//28 21//28 
f 24//29 23//29 22//29 
f 25//30 26//30 23//30 22//30 
f 26//31 27//31 24//31 23//31 
f 27//32 25//32 22//32 24//32 
f 27//33 26//33 25//33 
f 28//34 29//34 26//34 25//34 
f 29//35 30//35 27//35 26//35 
f 30//36 28//36 25//36 27//36 
f 30//37 29//37 28//37 
# 27 polygons - 10 triangles

#
# object mesh_1134308034
#

v  0.211757 0.374741 1.424261
v  0.231410 0.349677 1.438410
v  0.272462 0.404246 1.435133
v  0.262560 0.337995 1.448794
v  0.296860 0.342826 1.452630
v  0.325121 0.362874 1.448892
v  0.339769 0.392769 1.438579
v  0.336880 0.424499 1.424456
v  0.317227 0.449563 1.410309
v  0.286078 0.461244 1.399925
v  0.251777 0.456414 1.396089
v  0.223516 0.436365 1.399828
v  0.208868 0.406471 1.410140
v  0.182859 0.298225 1.292462
v  0.219415 0.251281 1.319847
v  0.277512 0.229798 1.341138
v  0.341583 0.239535 1.350629
v  0.394461 0.277880 1.345777
v  0.421977 0.334561 1.327882
v  0.416758 0.394389 1.301741
v  0.380203 0.441333 1.274355
v  0.322106 0.462816 1.253065
v  0.258034 0.453079 1.243575
v  0.205156 0.414734 1.248426
v  0.177640 0.358053 1.266319
v  0.152282 0.261684 1.243436
v  0.201533 0.198436 1.280331
v  0.279807 0.169493 1.309016
v  0.366130 0.182611 1.321803
v  0.437373 0.234274 1.315266
v  0.474445 0.310639 1.291158
v  0.467413 0.391246 1.255937
v  0.418162 0.454494 1.219041
v  0.339888 0.483436 1.190356
v  0.253565 0.470319 1.177569
v  0.182323 0.418655 1.184106
v  0.171695 0.325132 1.158730
v  0.164349 0.212045 1.132526
v  0.221994 0.137743 1.167542
v  0.312678 0.101884 1.191216
v  0.412103 0.114079 1.197205
v  0.493629 0.171059 1.183906
v  0.535409 0.257557 1.154879
v  0.526250 0.350395 1.117905
v  0.468604 0.424698 1.082890
v  0.377920 0.460557 1.059216
v  0.278495 0.448362 1.053226
v  0.196970 0.391382 1.066526
v  0.155190 0.304884 1.095552
v  0.171185 0.187460 1.069102
v  0.228830 0.113157 1.104118
v  0.319514 0.077299 1.127792
v  0.418940 0.089494 1.133781
v  0.500465 0.146474 1.120481
v  0.542245 0.232971 1.091455
v  0.533086 0.325810 1.054481
v  0.475441 0.400113 1.019466
v  0.384756 0.435971 0.995791
v  0.285331 0.423776 0.989801
v  0.203806 0.366796 1.003101
v  0.162026 0.280298 1.032127
v  0.199434 0.172701 1.008621
v  0.250126 0.107360 1.039413
v  0.329873 0.075827 1.060232
v  0.417306 0.086551 1.065499
v  0.488998 0.136658 1.053803
v  0.525739 0.212723 1.028278
v  0.517684 0.294364 0.995763
v  0.466992 0.359705 0.964970
v  0.387246 0.391238 0.944152
v  0.299812 0.380514 0.938885
v  0.228120 0.330407 0.950581
v  0.191380 0.254342 0.976106
v  0.245689 0.169548 0.958377
v  0.283314 0.121050 0.981232
v  0.342504 0.097645 0.996684
v  0.407400 0.105605 1.000594
v  0.460611 0.142796 0.991913
v  0.487881 0.199253 0.972968
v  0.481903 0.259850 0.948834
v  0.444278 0.308347 0.925980
v  0.385088 0.331752 0.910527
v  0.320193 0.323793 0.906618
v  0.266981 0.286602 0.915298
v  0.239711 0.230144 0.934245
v  0.304370 0.178382 0.924433
v  0.324391 0.152577 0.936594
v  0.355885 0.140123 0.944816
v  0.390415 0.144359 0.946896
v  0.418728 0.164148 0.942276
v  0.433239 0.194188 0.932196
v  0.430057 0.226430 0.919355
v  0.410037 0.252236 0.907195
v  0.378543 0.264689 0.898972
v  0.344013 0.260454 0.896892
v  0.315700 0.240665 0.901511
v  0.301190 0.210624 0.911591
v  0.368401 0.198137 0.910880
# 98 vertices

vn -0.299445 0.912088 -0.280050
vn -0.229326 0.945947 -0.229333
vn -0.138951 0.965582 -0.219874
vn -0.052583 0.965716 -0.254221
vn 0.006650 0.946320 -0.323163
vn 0.022888 0.912579 -0.408260
vn -0.008223 0.873561 -0.486646
vn -0.078379 0.839683 -0.537391
vn -0.168724 0.820055 -0.546847
vn -0.255099 0.819920 -0.512499
vn -0.314344 0.839320 -0.443542
vn -0.330575 0.873047 -0.358481
vn -0.817998 0.413193 0.400188
vn -0.456904 0.596581 0.659795
vn 0.007729 0.711242 0.702905
vn 0.450319 0.726665 0.518817
vn 0.752495 0.639317 0.158193
vn 0.834745 0.472988 -0.281930
vn 0.676201 0.271959 -0.684683
vn 0.318889 0.089418 -0.943565
vn -0.142981 -0.026022 -0.989383
vn -0.586596 -0.043076 -0.808733
vn -0.892556 0.043421 -0.448842
vn -0.977569 0.210528 -0.006015
vn -0.747883 0.627621 0.216248
vn -0.447064 0.782320 0.433716
vn -0.058798 0.880148 0.471044
vn 0.312882 0.894892 0.318233
vn 0.568384 0.822604 0.016227
vn 0.639244 0.682654 -0.354049
vn 0.506479 0.512539 -0.693385
vn 0.205663 0.357839 -0.910854
vn -0.182601 0.260009 -0.948184
vn -0.554281 0.245265 -0.795373
vn -0.941950 0.335371 -0.016035
vn -0.965191 -0.026292 -0.260222
vn -0.817640 0.154633 0.554576
vn -0.429401 0.361236 0.827721
vn 0.066240 0.504909 0.860627
vn 0.531551 0.545729 0.647791
vn 0.841614 0.477917 0.251557
vn 0.919213 0.325650 -0.221358
vn 0.748510 0.130825 -0.650090
vn 0.373330 -0.058879 -0.925828
vn -0.112596 -0.198609 -0.973590
vn -0.582335 -0.252515 -0.772737
vn -0.885702 0.085133 -0.456382
vn -0.967875 0.251390 -0.004629
vn -0.812414 0.132539 0.567818
vn -0.416349 0.289250 0.861967
vn 0.091276 0.368457 0.925153
vn 0.574444 0.348936 0.740444
vn 0.903689 0.235918 0.357335
vn 0.990793 0.059686 -0.121523
vn 0.812413 -0.132539 -0.567818
vn 0.416349 -0.289251 -0.861967
vn -0.091276 -0.368458 -0.925153
vn -0.574444 -0.348937 -0.740444
vn -0.903689 -0.235918 -0.357334
vn -0.990793 -0.059686 0.121523
vn -0.733263 -0.182660 0.654951
vn -0.359617 -0.034820 0.932450
vn 0.119274 0.039904 0.992059
vn 0.575093 0.021488 0.817806
vn 0.885702 -0.085133 0.456381
vn 0.967875 -0.251390 0.004629
vn 0.799593 -0.432734 -0.416404
vn 0.425947 -0.580575 -0.693903
vn -0.052944 -0.655299 -0.753512
vn -0.508763 -0.636883 -0.579259
vn -0.819372 -0.530262 -0.217835
vn -0.901545 -0.364005 0.233918
vn -0.568178 -0.481187 0.667558
vn -0.260487 -0.359442 0.896074
vn 0.133872 -0.297909 0.945161
vn 0.509231 -0.313074 0.801666
vn 0.765013 -0.400874 0.504039
vn 0.832680 -0.537784 0.132029
vn 0.694103 -0.687118 -0.214685
vn 0.386412 -0.808863 -0.443201
vn -0.007947 -0.870396 -0.492288
vn -0.383306 -0.855231 -0.348793
vn -0.639087 -0.767430 -0.051166
vn -0.706755 -0.630521 0.320844
vn -0.330981 -0.728320 0.600001
vn -0.127778 -0.647919 0.750915
vn 0.132660 -0.607282 0.783333
vn 0.380552 -0.617297 0.688567
vn 0.549473 -0.675281 0.492011
vn 0.594161 -0.765698 0.246332
vn 0.502643 -0.864320 0.017358
vn 0.299440 -0.944721 -0.133557
vn 0.039002 -0.985359 -0.165974
vn -0.208890 -0.975343 -0.071209
vn -0.377810 -0.917359 0.125348
vn -0.422499 -0.826942 0.371027
vn -0.047524 -0.888844 0.455740
vn 0.023601 -0.860702 0.508562
vn 0.114760 -0.846478 0.519909
vn 0.201527 -0.849983 0.486739
vn 0.260653 -0.870279 0.417941
vn 0.276295 -0.901927 0.331948
vn 0.244262 -0.936446 0.251802
vn 0.173137 -0.964589 0.198979
vn 0.081978 -0.978812 0.187633
vn -0.004789 -0.975307 0.220802
vn -0.063915 -0.955011 0.289601
vn -0.079557 -0.923363 0.375594
vn -0.880647 0.457504 -0.123091
vn -0.983524 -0.151293 -0.098950
vn -0.906268 -0.077094 -0.415613
vn -0.975577 -0.157133 -0.153492
# 112 vertex normals

o mesh_1134308034
g mesh_1134308034
usemtl material_9___26544
s off
f 31//38 32//38 33//38 
f 32//39 34//39 33//39 
f 34//40 35//40 33//40 
f 35//41 36//41 33//41 
f 36//42 37//42 33//42 
f 37//43 38//43 33//43 
f 38//44 39//44 33//44 
f 39//45 40//45 33//45 
f 40//46 41//46 33//46 
f 41//47 42//47 33//47 
f 42//48 43//48 33//48 
f 43//49 31//49 33//49 
f 44//50 45//50 32//50 31//50 
f 45//51 46//51 34//51 32//51 
f 46//52 47//52 35//52 34//52 
f 47//53 48//53 36//53 35//53 
f 48//54 49//54 37//54 36//54 
f 49//55 50//55 38//55 37//55 
f 50//56 51//56 39//56 38//56 
f 51//57 52//57 40//57 39//57 
f 52//58 53//58 41//58 40//58 
f 53//59 54//59 42//59 41//59 
f 54//60 55//60 43//60 42//60 
f 55//61 44//61 31//61 43//61 
f 56//62 57//62 45//62 44//62 
f 57//63 58//63 46//63 45//63 
f 58//64 59//64 47//64 46//64 
f 59//65 60//65 48//65 47//65 
f 60//66 61//66 49//66 48//66 
f 61//67 62//67 50//67 49//67 
f 62//68 63//68 51//68 50//68 
f 63//69 64//69 52//69 51//69 
f 64//70 65//70 53//70 52//70 
f 65//71 66//71 54//71 53//71 
f 66//72 67//72 54//72 
f 67//73 56//73 55//73 
f 68//74 69//74 57//74 56//74 
f 69//75 70//75 58//75 57//75 
f 70//76 71//76 59//76 58//76 
f 71//77 72//77 60//77 59//77 
f 72//78 73//78 61//78 60//78 
f 73//79 74//79 62//79 61//79 
f 74//80 75//80 63//80 62//80 
f 75//81 76//81 64//81 63//81 
f 76//82 77//82 65//82 64//82 
f 77//83 78//83 66//83 65//83 
f 78//84 79//84 67//84 
f 79//85 68//85 67//85 
f 80//86 81//86 69//86 68//86 
f 81//87 82//87 70//87 69//87 
f 82//88 83//88 71//88 70//88 
f 83//89 84//89 72//89 71//89 
f 84//90 85//90 73//90 72//90 
f 85//91 86//91 74//91 73//91 
f 86//92 87//92 75//92 74//92 
f 87//93 88//93 76//93 75//93 
f 88//94 89//94 77//94 76//94 
f 89//95 90//95 78//95 77//95 
f 90//96 91//96 79//96 78//96 
f 91//97 80//97 68//97 79//97 
f 92//98 93//98 81//98 80//98 
f 93//99 94//99 82//99 81//99 
f 94//100 95//100 83//100 82//100 
f 95//101 96//101 84//101 83//101 
f 96//102 97//102 85//102 84//102 
f 97//103 98//103 86//103 85//103 
f 98//104 99//104 87//104 86//104 
f 99//105 100//105 88//105 87//105 
f 100//106 101//106 89//106 88//106 
f 101//107 102//107 90//107 89//107 
f 102//108 103//108 91//108 90//108 
f 103//109 92//109 80//109 91//109 
f 104//110 105//110 93//110 92//110 
f 105//111 106//111 94//111 93//111 
f 106//112 107//112 95//112 94//112 
f 107//113 108//113 96//113 95//113 
f 108//114 109//114 97//114 96//114 
f 109//115 110//115 98//115 97//115 
f 110//116 111//116 99//116 98//116 
f 111//117 112//117 100//117 99//117 
f 112//118 113//118 101//118 100//118 
f 113//119 114//119 102//119 101//119 
f 114//120 115//120 103//120 102//120 
f 115//121 104//121 92//121 103//121 
f 116//122 117//122 105//122 104//122 
f 117//123 118//123 106//123 105//123 
f 118//124 119//124 107//124 106//124 
f 119//125 120//125 108//125 107//125 
f 120//126 121//126 109//126 108//126 
f 121//127 122//127 110//127 109//127 
f 122//128 123//128 111//128 110//128 
f 123//129 124//129 112//129 111//129 
f 124//130 125//130 113//130 112//130 
f 125//131 126//131 114//131 113//131 
f 126//132 127//132 115//132 114//132 
f 127//133 116//133 104//133 115//133 
f 128//134 117//134 116//134 
f 128//135 118//135 117//135 
f 128//136 119//136 118//136 
f 128//137 120//137 119//137 
f 128//138 121//138 120//138 
f 128//139 122//139 121//139 
f 128//140 123//140 122//140 
f 128//141 124//141 123//141 
f 128//142 125//142 124//142 
f 128//143 126//143 125//143 
f 128//144 127//144 126//144 
f 128//145 116//145 127//145 
f 56//146 44//146 55//146 
f 68//147 56//147 67//147 
f 67//148 55//148 54//148 
f 67//149 66//149 78//149 
# 80 polygons - 32 triangles

