# 3ds Max Wavefront OBJ Exporter v0.97b - (c)2007 guruware
# File Created: 30.01.2023 03:43:57

mtllib Sale.mtl

#
# object Box001
#

v  0.125773 0.252315 0.000000
v  0.125773 0.282315 0.000000
v  0.165773 0.282315 0.000000
v  0.165773 0.252315 0.000000
v  0.125773 0.252315 0.001000
v  0.165773 0.252315 0.001000
v  0.165773 0.282315 0.001000
v  0.125773 0.282315 0.001000
# 8 vertices

vn -0.577350 -0.577350 -0.577350
vn -0.577350 0.577350 -0.577350
vn 0.577350 0.577350 -0.577350
vn 0.577350 -0.577350 -0.577350
vn -0.577350 -0.577350 0.577350
vn 0.577350 -0.577350 0.577350
vn 0.577350 0.577350 0.577350
vn -0.577350 0.577350 0.577350
# 8 vertex normals

vt 0.011551 0.505934 0.000000
vt 0.494066 0.505934 0.000000
vt 0.494066 0.995374 0.000000
vt 0.011551 0.995374 0.000000
# 4 texture coords

o Box001
g Box001
usemtl wire_028089177
s 2
f 1/1/1 2/2/2 3/3/3 4/4/4 
s 4
f 5/4/5 6/1/6 7/2/7 8/3/8 
s 8
f 1/4/1 4/1/4 6/2/6 5/3/5 
s 16
f 4/4/4 3/1/3 7/2/7 6/3/6 
s 32
f 3/4/3 2/1/2 8/2/8 7/3/7 
s 64
f 2/4/2 1/1/1 5/2/5 8/3/8 
# 6 polygons

